<svg xmlns="http://www.w3.org/2000/svg" width="54.13" height="54.12" viewBox="0 0 54.13 54.12">
  <defs>
    <style>
      .cls-1 {
        fill: #262626;
        fill-rule: evenodd;
      }
    </style>
  </defs>
  <path id="icon" class="cls-1" d="M1665,3301.9a1.2,1.2,0,0,0,.48-2.15c-1.45-1.06-3.32-2.1-4.72-1.79l2.91-7.22a1.2,1.2,0,0,0-1.56-1.56l-7.23,2.9c0.31-1.4-.73-3.26-1.79-4.71a1.191,1.191,0,0,0-2.14.48,39.791,39.791,0,0,1-2.64,7.89,12.423,12.423,0,0,1,2.17,1.75l4.88,4.87a12.9,12.9,0,0,1,1.75,2.17A39.217,39.217,0,0,1,1665,3301.9Zm-11.27,2.09-4.87-4.88a10.738,10.738,0,0,0-16.95,2.34l-5.35,9.51,5.81,9.57-8.35-5.06-11.77,20.94a3.08,3.08,0,0,0,2.66,4.59,3.124,3.124,0,0,0,1.51-.41l9.16-5.14-3.08-5.7,6.75,3.64,18.8-10.57-5.16-9.01,10.28,5.89A10.747,10.747,0,0,0,1653.73,3303.99Z" transform="translate(-1611.84 -3286.88)"/>
</svg>
