<svg xmlns="http://www.w3.org/2000/svg" width="55" height="55" viewBox="0 0 55 55">
  <defs>
    <style>
      .cls-1 {
        fill: #262626;
        fill-rule: evenodd;
      }
    </style>
  </defs>
  <path id="icon" class="cls-1" d="M1661.06,2937.01a2.654,2.654,0,0,0-2.09-1.02h-27.12a2.656,2.656,0,0,0-2.53,3.48l4.99,15.61a1.666,1.666,0,0,0,1.58,1.15h20.3a1.658,1.658,0,0,0,1.61-1.27l3.76-15.68A2.65,2.65,0,0,0,1661.06,2937.01Zm-0.64,22.17h-26.18a2.119,2.119,0,0,1-2.03-1.47l-7.21-22.36a5.081,5.081,0,0,0-4.85-3.53h-1.57a2.43,2.43,0,0,0,0,4.86h1.57a0.241,0.241,0,0,1,.23.16l7.21,22.36a6.963,6.963,0,0,0,6.65,4.84h26.18A2.43,2.43,0,0,0,1660.42,2959.18Zm-24.46,7.66a3.87,3.87,0,1,0,3.87,3.87A3.867,3.867,0,0,0,1635.96,2966.84Zm20.33,0a3.87,3.87,0,1,0,3.87,3.87A3.867,3.867,0,0,0,1656.29,2966.84Z" transform="translate(-1612 -2925.7)"/>
</svg>
