<?xml version="1.0" encoding="utf-8"?>
<!-- Generator: Adobe Illustrator 24.0.3, SVG Export Plug-In . SVG Version: 6.00 Build 0)  -->
<svg version="1.1" id="Шар_1" xmlns="http://www.w3.org/2000/svg" xmlns:xlink="http://www.w3.org/1999/xlink" x="0px" y="0px"
	 viewBox="0 0 79.97 80" style="enable-background:new 0 0 79.97 80;" xml:space="preserve">
<style type="text/css">
	.st0{fill-rule:evenodd;clip-rule:evenodd;fill:#3C3C3C;}
</style>
<path class="st0" d="M77.96,0H66.03c-1.11,0-2.02,0.86-2.02,1.93c0,0,0,0.01,0,0.01v4.02H15.86V1.95c0-1.07-0.9-1.94-2.01-1.95
	c0,0-0.01,0-0.01,0H2.02C0.91,0,0,0.86,0,1.93c0,0,0,0.01,0,0.01v11.82c0,1.07,0.9,1.94,2.01,1.95c0,0,0.01,0,0.01,0h11.93
	c1.11,0,2.02-0.86,2.02-1.93c0,0,0-0.01,0-0.01V9.75h22.16c-0.22,4.77-12.26,27.21-19.91,40.44c-0.42,0.8-0.24,1.77,0.45,2.38
	c6.86,5.64,8.55,11.17,9,13.99h-2.59c-1.11,0-2.02,0.86-2.02,1.93c0,0,0,0.01,0,0.01v9.54c-0.01,1.07,0.89,1.95,2,1.96
	c0.01,0,0.01,0,0.02,0h29.93c1.11,0,2.02-0.87,2.02-1.94c0-0.01,0-0.01,0-0.02v-9.54c0-1.07-0.9-1.94-2.01-1.95c0,0-0.01,0-0.01,0
	h-2.59c0.45-2.82,2.14-8.35,9-13.99c0.69-0.6,0.88-1.58,0.45-2.38C54.22,36.96,42.18,14.41,41.96,9.75h22.05v4.02
	c0,1.07,0.9,1.94,2.01,1.95c0,0,0.01,0,0.01,0h11.93c1.11,0,2.02-0.86,2.02-1.93c0,0,0-0.01,0-0.01V1.95c0-1.07-0.9-1.94-2.01-1.95
	C77.97,0,77.96,0,77.96,0z M11.92,11.81H3.94V3.8h7.98V11.81z M40.05,43.58c1.43,0,2.58,1.12,2.58,2.5c0,1.38-1.16,2.49-2.59,2.49
	c-1.43,0-2.58-1.12-2.58-2.5C37.52,44.71,38.65,43.63,40.05,43.58L40.05,43.58z M53.1,75.99H27.11v-5.75H53.1V75.99z M48.48,66.44
	H31.61c-0.45-3.14-2.14-9.42-9.22-15.82c2.69-4.77,10.79-19.08,15.63-29.7v19.19c-2.69,0.82-4.52,3.23-4.5,5.95
	c-0.01,3.47,2.9,6.3,6.5,6.31c3.6,0.01,6.54-2.79,6.55-6.26c0.01-2.73-1.81-5.15-4.5-6v-19.3c4.95,10.63,12.94,24.94,15.64,29.81
	C50.62,57.02,48.93,63.3,48.48,66.44z M76.04,11.81h-7.98V3.9h7.98V11.81z"/>
</svg>
