<?xml version="1.0" encoding="utf-8"?>
<!-- Generator: Adobe Illustrator 24.0.3, SVG Export Plug-In . SVG Version: 6.00 Build 0)  -->
<svg version="1.1" id="Шар_1" xmlns="http://www.w3.org/2000/svg" xmlns:xlink="http://www.w3.org/1999/xlink" x="0px" y="0px"
	 viewBox="0 0 79 76" style="enable-background:new 0 0 79 76;" xml:space="preserve">
<style type="text/css">
	.st0{fill-rule:evenodd;clip-rule:evenodd;fill:#3C3C3C;}
</style>
<g>
	<path class="st0" d="M27.76,48.64c0.34,0.35,0.8,0.54,1.29,0.54l0,0c0.48,0,0.95-0.19,1.29-0.54c0.71-0.72,0.71-1.88,0-2.6
		l-4.37-4.41l4.36-4.41c0.71-0.72,0.71-1.88,0-2.6c-0.71-0.71-1.86-0.71-2.57,0l-5.65,5.71c-0.71,0.72-0.71,1.88,0,2.6L27.76,48.64z
		"/>
	<path class="st0" d="M53.04,41.64l-4.36,4.4c-0.71,0.72-0.71,1.88,0,2.6c0.34,0.35,0.8,0.54,1.29,0.54l0,0
		c0.48,0,0.95-0.19,1.28-0.54l5.65-5.71c0.71-0.72,0.71-1.87,0-2.59l-5.66-5.72c-0.71-0.71-1.86-0.71-2.57,0
		c-0.71,0.72-0.71,1.88,0,2.6L53.04,41.64z"/>
	<path class="st0" d="M76.92-0.01H2.08C0.92,0-0.01,0.94,0,2.09v0.8c0.34,1.3,0.3,2.72,0.29,4.05c-0.02,1.57,0.07,3.15,0.08,4.72
		c0,0.44-0.07,0.86-0.18,1.26C0.14,13.62,0.1,14.31,0.08,15c0.02,0.82,0.02,1.63-0.02,2.44c0.04,2.84,0.25,5.67,0.3,8.52
		C0.38,26.63,0.24,27.24,0,27.8v46.1c-0.01,1.15,0.93,2.09,2.08,2.1h74.84c1.15-0.01,2.08-0.95,2.08-2.1V2.09
		C79.01,0.94,78.07,0,76.92-0.01z M74.85,71.8H4.16V15.08h70.69C74.85,15.08,74.85,71.8,74.85,71.8z M74.85,10.88H4.16V4.19h70.69
		C74.85,4.19,74.85,10.88,74.85,10.88z"/>
	<path class="st0" d="M36.44,53.36c0.15,0.04,0.3,0.06,0.45,0.06l0,0c0.83,0,1.56-0.57,1.76-1.38l4.62-18.28
		c0.25-0.98-0.33-1.98-1.31-2.24h-0.01c-0.98-0.24-1.96,0.36-2.2,1.33l-4.62,18.28C34.88,52.11,35.46,53.1,36.44,53.36z"/>
	<path class="st0" d="M17.91,9.01c0.81-0.01,1.46-0.67,1.45-1.49c-0.01-0.81-0.67-1.46-1.49-1.45c-0.81,0-1.46,0.66-1.45,1.47
		c0,0.01,0,0.01,0,0.02C16.44,8.37,17.1,9.02,17.91,9.01z"/>
	<path class="st0" d="M9.21,9.01c0.81-0.01,1.46-0.67,1.45-1.49c-0.01-0.81-0.67-1.46-1.48-1.45c-0.81,0-1.46,0.66-1.46,1.47v0.01
		C7.73,8.37,8.4,9.02,9.21,9.01z"/>
	<path class="st0" d="M13.55,9c0.81-0.01,1.46-0.67,1.45-1.48c0-0.81-0.66-1.46-1.47-1.45s-1.46,0.66-1.45,1.47c0,0,0,0,0,0.01
		C12.08,8.36,12.75,9.01,13.55,9z"/>
</g>
<rect y="2.52" class="st0" width="2.22" height="26.41"/>
</svg>
