<svg xmlns="http://www.w3.org/2000/svg" width="23" height="37" viewBox="0 0 23 37">
  <defs>
    <style>
      .cls-1 {
        fill: #fff;
        fill-rule: evenodd;
      }
    </style>
  </defs>
  <path id="scroll.svg" class="cls-1" d="M1985.5,1953.76a1.655,1.655,0,1,0,1.65,1.66A1.656,1.656,0,0,0,1985.5,1953.76Zm-0.96-9.77a11.479,11.479,0,0,0-10.54,11.43v14.07a11.5,11.5,0,1,0,23,0v-14.07a11.488,11.488,0,0,0-10.55-11.43m-0.95,35.1a9.607,9.607,0,0,1-9.59-9.6v-14.07a9.59,9.59,0,1,1,19.18,0v14.07A9.607,9.607,0,0,1,1985.5,1979.09Z" transform="translate(-1974 -1944)"/>
</svg>
