<svg xmlns="http://www.w3.org/2000/svg" width="54.834" height="54.999" viewBox="0 0 53 53.16">
  <defs>
    <style>
      .cls-1 {
        fill: #262626;
        fill-rule: evenodd;
      }
    </style>
  </defs>
  <path id="icon" class="cls-1" d="M1653.08,3203.4c0.64,0.04,1.29.09,1.92,0.11a19.041,19.041,0,0,1-14.61,8.46c0.3-.58.6-1.18,0.88-1.78a16.684,16.684,0,0,0,4.43-1.17,0.3,0.3,0,0,0,.04-0.08,1.2,1.2,0,0,1,.21-0.37l-0.08-.21,0.18-.26a2.7,2.7,0,0,1,.34-0.45c0.13-.1,1.23-1.05,1.47-1.23,0.21-.16,1.12-0.85,1.52-1.17,0.05-.04.1-0.09,0.13-0.11a7.415,7.415,0,0,0,.95-1.16,8.148,8.148,0,0,0,.35-0.8h0C1651.57,3203.27,1652.33,3203.34,1653.08,3203.4Zm-18.61,1.29c-0.07-.01.02,0.04,0.08,0.07A0.1,0.1,0,0,0,1634.47,3204.69Zm14.29-1.34c0.19,0.02.44,0,.62,0h0.06a1.351,1.351,0,0,0,.63-0.24l0.02-.01h0l-0.7-.09c-0.23-.04-0.47-0.07-0.7-0.1a0.368,0.368,0,0,1,.23.25C1648.78,3203.21,1648.55,3203.32,1648.76,3203.35Zm-14.21,1.41a0.01,0.01,0,0,1,.01.01C1634.62,3204.8,1634.6,3204.78,1634.55,3204.76Zm5.92-14.15,0.03,0.03C1640.51,3190.61,1640.47,3190.61,1640.47,3190.61Zm6.32,4.17h-0.04l-0.03.15c-0.17.62-.34,1.24-0.52,1.86,0.15,0,.28.01,0.28,0.01a0.382,0.382,0,0,0,.2-0.27,1.947,1.947,0,0,1,.16-0.43,1.131,1.131,0,0,0,.12.02,0.766,0.766,0,0,0,.09-0.34,3.061,3.061,0,0,0-.12-0.5c0-.15.06-0.53,0.06-0.53Zm-0.83,2.84-0.09.28,0.13-.02s0.04,0.09.08,0.21a1.04,1.04,0,0,0,.05-0.12,1.406,1.406,0,0,0-.04-0.27A0.223,0.223,0,0,0,1645.96,3197.62Zm1.64-6.02-0.04-.02c-0.1.38-.18,0.76-0.28,1.13a0.342,0.342,0,0,0,.29.06,3.211,3.211,0,0,0,.39.02c0.28,0,.33.04,0.38-0.08s0.06,0.06.06-.25a0.631,0.631,0,0,0-.24-0.53A2.524,2.524,0,0,0,1647.6,3191.6Zm17.99,8.4c-0.84,3.16-10.02,3.54-21.66,1.21-3.81,11.27-8.72,19.05-11.87,18.2-1.99-.53-2.87-4.39-2.67-10.09,0.07,0.04.14,0.08,0.2,0.11a19.113,19.113,0,0,1-9.47-15.29c0.56,0.29,1.12.57,1.69,0.85,2.04,0.97,4.18,1.87,6.35,2.67h-0.01l0.01,0.11-0.32.56-0.29.18,0.08,0.13,0.06,0.26h-0.16v0.58a0.521,0.521,0,0,0,.42.29l-0.13.08a1.029,1.029,0,0,0,.15.34,2.09,2.09,0,0,1,.29.58,6.22,6.22,0,0,1,.13.7s0.35,0.58.5,0.82a7.27,7.27,0,0,1,.61.82c0.13,0.26.42,0.13,0.96,0.26a2.174,2.174,0,0,1,.79.31,5.511,5.511,0,0,0,.47.35,1.8,1.8,0,0,0,.87.1,2.6,2.6,0,0,1,.74.12l0.1,0.01a1.3,1.3,0,0,1,.81.36l0.03,0.01c0.16,0.07.25,0.11,0.29,0.13a1.824,1.824,0,0,1,.05.45c0.03,0.13.21-.03,0.34-0.03a0.5,0.5,0,0,1,.24.15,0.535,0.535,0,0,0,.13.06c0.23,0.08.28-.08,0.28-0.08l0.27,0.32,0.21,0.28-0.21.51-0.18.18a1.836,1.836,0,0,0,0-.43c-0.03-.18-0.19.09-0.19,0.09l-0.15.5,0.57,0.55,0.17,0.16,0.38,0.34,0.02,0.07,0.22,0.62-0.03.21,0.13,0.34a2.061,2.061,0,0,1-.32.1,0.443,0.443,0,0,1-.15.03,0.44,0.44,0,0,0-.25.18,1.642,1.642,0,0,0-.14.21,2.531,2.531,0,0,0,.14.24,0.8,0.8,0,0,0,.2.21c0.03,0.03.07,0.04,0.1,0.07a0.235,0.235,0,0,1,.08.02,0.053,0.053,0,0,1-.02.03h0.01l-0.08.13h0c-0.23.4-.52,0.88-0.85,1.4a19.509,19.509,0,0,1-5.5-1.99l0.01,0.01c0.05,3.44.7,5.68,1.96,6.01,2.38,0.64,6.24-5.72,9.43-15.03-1.34-.3-2.7-0.63-4.08-1.01-14.61-3.92-25.64-10.13-24.64-13.86,0.53-1.99,4.37-2.88,10.06-2.68-0.06.12-.13,0.23-0.19,0.34a19.044,19.044,0,0,1,16.67-9.67h-0.35c2.67-5.04,5.36-7.93,7.34-7.4,3.72,1,3.57,13.68-.34,28.32-0.37,1.39-.76,2.74-1.17,4.06,9.64,1.88,17.06,1.71,17.71-.68,0.34-1.26-1.27-2.93-4.22-4.7v-0.02a19.463,19.463,0,0,1-1.04,5.77c-0.61.03-1.17,0.04-1.63,0.04h0c-0.37,0-.66-0.01-0.83-0.02-0.49-.02-0.99-0.04-1.49-0.07a5.024,5.024,0,0,0,.18-0.67,3.091,3.091,0,0,1,.12-0.4l-0.59-.14-0.07-.38-0.24-.05-0.23.44a1.385,1.385,0,0,1-.38.38,1.341,1.341,0,0,1-.47.13l0.06-.31a0.606,0.606,0,0,0-.34.04l-0.02-.29a0.666,0.666,0,0,0-.25-0.32,0.852,0.852,0,0,1-.29-0.27,1.161,1.161,0,0,1-.14-0.27,0.038,0.038,0,0,0-.02-0.02l0.04-.16s0.21-.23.39-0.44,0.23,0.21.41,0.36a0.408,0.408,0,0,1,.12.39,0.668,0.668,0,0,0,.27.06,0.238,0.238,0,0,1,.21.12l0.3,0.11,0.3-.33a0.293,0.293,0,0,1,.27-0.21c0.21,0,.03.27,0.03,0.43s0.15,0,.57-0.18a3.5,3.5,0,0,0,.62-0.37,0.542,0.542,0,0,0,.33-0.26,2.175,2.175,0,0,0,.27-0.24l0.33,0.21,0.36-.06,0.36-.21v0.27a0.491,0.491,0,0,0-.09.51c0.15,0.21.18,0.15,0.09,0.42a0.492,0.492,0,0,0,0,.42,0.516,0.516,0,0,1,.03.19,17.464,17.464,0,0,0-6.13-19c0.05-.67.09-1.33,0.12-1.99a19.122,19.122,0,0,1,8.47,15.91v-0.27C1663.23,3195.32,1666.12,3198.01,1665.59,3200Zm-22.85-20.78a3.208,3.208,0,0,1,.29-0.15c0.09-.04,0-0.05-0.1-0.12a0.2,0.2,0,0,0-.21.06,0.463,0.463,0,0,0-.11.17c0,0.01-.01.02-0.01,0.03-0.05.06-.11-0.1-0.12-0.19a0.486,0.486,0,0,0-.35-0.03,1.3,1.3,0,0,1,.08.17,2.227,2.227,0,0,1,.03.23,0.538,0.538,0,0,0,.05.27,1.4,1.4,0,0,0,.2.21l0.11-.07,0.04-.03,0.16-.27,0.13-.12Zm-2.14-1.19s0.02-.19.13-0.17a0.409,0.409,0,0,0,.21-0.25,0.323,0.323,0,0,0-.19-0.17c-0.11,0-.34.03-0.34,0.03l-0.06-.13a0.678,0.678,0,0,0-.3.04,0.145,0.145,0,0,1-.21-0.08l-0.02-.26-0.23.07-0.17-.15s-0.06-.13.04-0.13a2.4,2.4,0,0,1,.25.02l0.21-.15-0.08-.16,0.14-.17s-0.29-.15-0.35-0.04a0.853,0.853,0,0,1-.3.19,0.317,0.317,0,0,0-.1-0.23c-0.13-.17.06-0.26-0.21-0.19a0.8,0.8,0,0,0-.37.17,0.722,0.722,0,0,0-.1.08,0.486,0.486,0,0,0-.31.17,0.538,0.538,0,0,0,.36.16,0.2,0.2,0,0,1,.05-0.05c0.05-.06.15-0.15,0.22-0.07a1.218,1.218,0,0,1,.19.23l-0.4.21-0.01-.01-0.2-.16h-0.4l-0.19.09-0.38.04a1.194,1.194,0,0,1,.07.29,0.376,0.376,0,0,1-.17.22l-0.23-.02-0.02-.01-0.24.17a0.923,0.923,0,0,0-.36.1,0.055,0.055,0,0,1-.05.03c-0.1.03-.2-0.04-0.2,0.1,0,0.17.02,0.25-.1,0.28a0.44,0.44,0,0,0-.1.02c-0.13.03-.3,0.06-0.3,0.06a0.81,0.81,0,0,0-.23.17,1.011,1.011,0,0,1-.34.17l-0.03-.01-0.39-.08-0.54.23-0.02.04-0.11.26-0.36.04a0.775,0.775,0,0,0-.32.26,0.23,0.23,0,0,1-.11.13,0.443,0.443,0,0,1-.1.06,1.5,1.5,0,0,0-.31.16,1.317,1.317,0,0,0-.23.25l-0.09.19,0.15,0.22-0.34.04,0.04,0.16c0.17,0.17.28,0.26,0.38,0.17a0.451,0.451,0,0,1,.17-0.19c0.07-.03.21-0.07,0.32-0.11,0.08-.03.16-0.06,0.2-0.08a1.624,1.624,0,0,1,.4-0.19,1.721,1.721,0,0,0,.25-0.02l0.05-.04,0.29-.23,0.34,0.15,0.27-.04a0.186,0.186,0,0,0,.05.12,0.151,0.151,0,0,0,.08.04,1.226,1.226,0,0,0,.31.04,0.379,0.379,0,0,1,.26-0.14h0.37l0.04-.19,0.24,0.11,0.04,0.01,0.19,0.15s-0.09.02,0.12,0.11a0.5,0.5,0,0,0,.32.01,0.477,0.477,0,0,0,.08-0.04l0.36,0.09a0.435,0.435,0,0,0-.08-0.34,1.086,1.086,0,0,1-.32-0.1l0.23-.09,0.26-.04,0.06,0.28,0.4-.13-0.06-.23,0.02-.36,0.38,0.06,0.02,0.25a0.457,0.457,0,0,0,.15.05c0.09,0.03.18,0.03,0.18-.05,0-.15-0.08-0.25.03-0.25a1.658,1.658,0,0,0,.31-0.06l0.1-.15,0.15-.34,0.17,0.25,0.23-.15-0.04-.21,0.5-.23s0.3-.04.43-0.04a0.234,0.234,0,0,0,.16-0.04s0.09-.17-0.04-0.17A0.359,0.359,0,0,1,1640.6,3178.03Zm-5.03,8.17-0.21.1,0.49,0.23,0.23,0.01,0.18,0.01a1.141,1.141,0,0,0,.15-0.42,0.245,0.245,0,0,1,.07-0.17c0.05-.03.11-0.06,0.21-0.12a0.2,0.2,0,0,0,.08-0.3,0.286,0.286,0,0,0-.29-0.07,0.121,0.121,0,0,0-.05.01l-0.35.17-0.03.02-0.16-.22-0.24.07-0.23.23a0.442,0.442,0,0,1,.15.02,0.618,0.618,0,0,1,.23,0c0.17,0.03-.04.17-0.04,0.17l-0.34.09Zm0.8-4.94-0.29.02h0a1.192,1.192,0,0,0,0,.48c0.01,0.01.01,0.02,0.02,0.03a0.494,0.494,0,0,0,.38.27,0.736,0.736,0,0,0,.29-0.02c0.19-.04.25-0.05,0.26-0.05l-0.03.01a0.1,0.1,0,0,0,.03-0.01l0.13-.05,0.16-.07a0.568,0.568,0,0,0,.27-0.31c0-.15-0.23-0.1-0.42-0.1h-0.01c-0.18-.01-0.16-0.03-0.24-0.24s-0.09.13-.09,0.13a0.324,0.324,0,0,1-.16-0.21,1.275,1.275,0,0,1-.11-0.34l-0.07.04-0.24.13,0.06,0.12Zm-0.21,6.05s0.08,0.11.21,0.28c0.05,0.07.09,0.05,0.11,0a0.259,0.259,0,0,1,.12-0.17c0.1,0,.02.17,0.15,0.15a3.73,3.73,0,0,1,.4-0.02h0.01l0.18,0.21a0.527,0.527,0,0,0,.23-0.21c0.02-.11.02-0.11,0.19-0.11s0.1-.02.31-0.19-0.06-.31-0.23-0.4-0.02-.23-0.02-0.23l0.02-.3a2.1,2.1,0,0,0-.02-0.25c-0.02-.15-0.06-0.25-0.09-0.4a0.122,0.122,0,0,0-.16-0.11v-0.19a1.943,1.943,0,0,0,.42-0.04c0.1-.04,0-0.25,0-0.25s-0.25-.1-0.44-0.17-0.07-.1.25-0.12,0.04-.17.04-0.17l-0.25-.15a0.859,0.859,0,0,1-.34.25,0.879,0.879,0,0,0-.1.06c-0.07.08-.02,0.16-0.09,0.26v0.17l0.09,0.15,0.06,0.1a1.077,1.077,0,0,1-.06.18,0.611,0.611,0,0,1-.07.14,0.252,0.252,0,0,0,.05.27,1.8,1.8,0,0,1-.05.43c-0.04.14-.36-0.13-0.36-0.13l-0.06.36h-0.29l0.04,0.19,0.07,0.05,0.12,0.1,0.12,0.19-0.24-.09-0.11-.04Zm-3.3-9.51-0.36.38a1.89,1.89,0,0,0,.42.04,2.3,2.3,0,0,0,.41-0.25c0.13-.09.26-0.17,0.35-0.23a0.4,0.4,0,0,1,.32-0.11l0.08,0.17-0.5.3,0.59-.09,0.07-.06,0.22-.21,0.24-.28,0.35,0.02,0.14-.05,0.3-.11a1.248,1.248,0,0,0,.36-0.36c0.08-.15.14-0.07,0.24-0.04a0.17,0.17,0,0,0,.1,0c0.17-.04.09-0.19,0.09-0.34,0-.07.09-0.08,0.22-0.08a0.622,0.622,0,0,0,.32-0.03c0.13-.09-0.1-0.25-0.27-0.3l-0.05-.01c-0.14-.03-0.21-0.05-0.22-0.18a0.162,0.162,0,0,0-.19-0.09,0.445,0.445,0,0,0-.23.07c-0.13.09-.38,0.11-0.3-0.06a0.218,0.218,0,0,1,.04-0.05,15.687,15.687,0,0,0-1.95.53c0.15-.01.21,0,0.31,0,0.12,0-.13.15-0.13,0.15a2.246,2.246,0,0,0-.48.22l-0.02.01a0.219,0.219,0,0,0-.04.22h0.04a2.645,2.645,0,0,0,.27-0.02,1.792,1.792,0,0,0,.46-0.24,0.954,0.954,0,0,1,.18-0.09,1.263,1.263,0,0,0,.18-0.08c0.14-.08.04,0.24,0.04,0.24l0.4-.15,0.32-.02h0.12l0.12-.24-0.24-.05-0.13-.03,0.12-.13h0.01a3.64,3.64,0,0,1,.54.03c0.13,0.01,0,.16,0,0.16l-0.04.17-0.15.27a2.6,2.6,0,0,1-.33.03h-0.02a0.634,0.634,0,0,0-.3.16l-0.29.21h-0.43l-0.06.24-0.34-.04a1.372,1.372,0,0,1-.06-0.26c-0.02-.15-0.17,0-0.17,0a0.762,0.762,0,0,1-.2.36,0.18,0.18,0,0,1-.09.04A0.833,0.833,0,0,0,1632.86,3177.8Zm4.58-2.23c-0.18.01-.36,0.03-0.54,0.05a0.405,0.405,0,0,0,.1.03c0.13,0.02.02,0.06,0.02,0.16,0,0.07.03,0.1,0.14,0.12,0.05,0.01.12,0.02,0.22,0.03,0.3,0.04.11-.08,0.07-0.33A0.176,0.176,0,0,1,1637.44,3175.57Zm-1.13.24a0.841,0.841,0,0,0,.04-0.1c-0.03,0-.06.01-0.09,0.01A0.2,0.2,0,0,1,1636.31,3175.81Zm2.41-.33a0.306,0.306,0,0,0-.03.17c0.02,0.19.06,0,.19-0.04a0.138,0.138,0,0,0,.1-0.13h-0.26Zm-12.33,5.59,0.26,0.02,0.34-.21,0.33,0.1-0.19.09a3.146,3.146,0,0,0-.23.4,0.741,0.741,0,0,0,.51.1,2.714,2.714,0,0,0,.14-0.57,0.686,0.686,0,0,1,.45-0.27l0.12-.34,0.21,0.15a0.781,0.781,0,0,0,.11-0.34,0.7,0.7,0,0,0-.4-0.13l0.37-.18,0.38,0.1-0.08.74h0.37l0.09,0.13a3.805,3.805,0,0,1-.63.29,1.012,1.012,0,0,0-.34.28l-0.21.23a0.471,0.471,0,0,0,.25.17,0.174,0.174,0,0,1,.17.14,0.341,0.341,0,0,0,.23-0.21,0.173,0.173,0,0,0-.08-0.16s0.18-.22.31-0.36,0.8-.45.93-0.59a0.2,0.2,0,0,0,.04-0.25l0.31-.2s0.09-.4.13-0.5a5.774,5.774,0,0,1,.8-0.55,1.621,1.621,0,0,1,.77-0.36c0.43-.1.13-0.15,0.11-0.27s-0.36.16-.36,0.16l-0.5-.15a0.76,0.76,0,0,0,.42-0.16,0.481,0.481,0,0,1,.31-0.11c0.15-.06.11-0.12,0.11-0.12h0.23a2.7,2.7,0,0,0,.3-0.36c0.1-.17.33-0.49,0.33-0.49s-0.52.3-.63,0.34a1.464,1.464,0,0,1-.4-0.04,4.419,4.419,0,0,0-.53.29c-0.21.09-.44,0.22-0.44,0.22l-0.31-.07-0.25.11-0.61.25a3.243,3.243,0,0,1,.36-0.23l0.5-.3,0.4-.1,0.03-.21c-0.16.09-.32,0.17-0.48,0.26A17.516,17.516,0,0,0,1626.39,3181.07Zm15.83,17.17c0.43-1.35.83-2.75,1.22-4.19,3.41-12.74,3.8-23.71.88-24.49-1.25-.34-2.92,1.27-4.68,4.23h-0.06a18.981,18.981,0,0,1,5.79,1.05c0.04,0.61.04,1.17,0.04,1.62h0c0,0.37-.01.67-0.01,0.84-0.06,1.6-.21,3.24-0.42,4.89a0.938,0.938,0,0,0-.24-0.06,0.778,0.778,0,0,0-.23,0,1.7,1.7,0,0,1-.26-0.27,0.808,0.808,0,0,0-.47-0.3c-0.26-.09-0.24.1-0.24,0.1a0.936,0.936,0,0,1-.56.14,0.374,0.374,0,0,0-.38.33h0l-0.23.19a0.416,0.416,0,0,1-.26.21,0.708,0.708,0,0,0-.24.04,2.135,2.135,0,0,0-.07.4,0.163,0.163,0,0,1-.14.16,1.673,1.673,0,0,0-.3.08c-0.12.05-.24,0.13-0.36,0.19a2.3,2.3,0,0,1-.32.27c-0.24.13-.33,0.19-0.33,0.19l-0.33.07,0.17,0.17-0.26.05a0.755,0.755,0,0,0,.02.28,0.388,0.388,0,0,0,.3.14,1.7,1.7,0,0,1-.39.23c-0.2.09-.2,0.12-0.19,0.21a0.612,0.612,0,0,0,.49.37c0.35,0.09.1-.02,0.26-0.11a1.8,1.8,0,0,1,.33-0.14,1.609,1.609,0,0,1,.21.51c0,0.15-.05.45-0.03,0.56s0.19-.04.19-0.04l-0.16.18s0.04,0.31.04,0.4,0.31,0.03.31-.05a0.438,0.438,0,0,1,.43-0.25c0.26-.01.23-0.05,0.23-0.26a3.414,3.414,0,0,1,.05-0.49l0.3-.08a3.424,3.424,0,0,0,.28-0.24,0.5,0.5,0,0,0,.07-0.08,0.136,0.136,0,0,0-.07-0.16c-0.06-.05-0.12-0.09-0.16-0.13a0.983,0.983,0,0,1-.12-0.54,0.687,0.687,0,0,1,.02-0.23,0.261,0.261,0,0,1,.26-0.15,0.037,0.037,0,0,0,.03-0.01c0.12-.03.28-0.24,0.5-0.35s-0.12-.12-0.12-0.12,0.04-.19.07-0.35,0.49,0.05.49,0.05l0.17,0.21-0.21.16-0.24.36-0.34.46,0.28,0.73a0.9,0.9,0,0,0,.39.1,0.847,0.847,0,0,0,.44-0.19,1.87,1.87,0,0,1,.51-0.15l-0.08.49a2.564,2.564,0,0,1-.37-0.04,5.084,5.084,0,0,0-.59.15c-0.25.03-.1,0.2-0.1,0.32a0.667,0.667,0,0,0,.35.28l-0.27.17a0.431,0.431,0,0,0-.37-0.25,0.856,0.856,0,0,0-.3.47,0.532,0.532,0,0,0,.1.5,1.012,1.012,0,0,0-.34.11l-0.06.03c-0.17.12-.22,0.03-0.22,0.03a0.337,0.337,0,0,0-.22-0.15,2.25,2.25,0,0,0-.42.24,1.963,1.963,0,0,1-.55,0l-0.27-.29-0.22.22a0.665,0.665,0,0,1-.32-0.2c-0.12-.15,0-0.12-0.03-0.24s-0.07-.13-0.07-0.13l0.12-.19,0.32-.2a1.128,1.128,0,0,0-.07-0.64c-0.15-.2-0.15.2-0.15,0.2l-0.5.32,0.03,0.66-0.1.3-0.19-.05-0.13.15a2.651,2.651,0,0,0-.32-0.15,0.825,0.825,0,0,0-.54.25l-0.04.11-0.08.18-0.27-.05-0.15.18h-0.3c-0.13,0-.05.22-0.05,0.22a0.521,0.521,0,0,1-.18.14l-0.04-.06a0.271,0.271,0,0,0-.27.07,0.593,0.593,0,0,1-.16.07l-0.13.02-0.13-.32s-0.09-.17-0.17-0.04a0.266,0.266,0,0,0-.06.22l0.04,0.22-0.18.02-0.04-.02-0.09-.02-0.31-.19-0.04-.03s-0.22-.03-0.18.11,0.21,0.32.21,0.41a0.053,0.053,0,0,0,.02.03,0.6,0.6,0,0,1,.31.15,0.51,0.51,0,0,1-.17.28,0.365,0.365,0,0,1,.13.27,2.315,2.315,0,0,1-.07.5,1.372,1.372,0,0,0-.16.18,0.351,0.351,0,0,1-.05.08,1.014,1.014,0,0,1-.13.19,0.9,0.9,0,0,1-.36.03,2.179,2.179,0,0,0-.33-0.2,0.139,0.139,0,0,0-.09,0c-0.06.01-.07,0.04-0.23-0.07a2.136,2.136,0,0,0-.43-0.25,0.478,0.478,0,0,1-.22-0.18l-0.06-.04a0.852,0.852,0,0,0-.22-0.08,0.545,0.545,0,0,0-.24.16,0.712,0.712,0,0,1,0,.32,0.4,0.4,0,0,1-.07.34c-0.1.08-.12,0.02-0.14,0.17s0.07,0.07-.07.21a1.389,1.389,0,0,1-.17.2,0.053,0.053,0,0,0-.03.02,0.541,0.541,0,0,0-.29.22,0.8,0.8,0,0,0-.12.43,2.332,2.332,0,0,0,.39.57,0.42,0.42,0,0,0,.05.02,0.192,0.192,0,0,1,.17.15c0,0.13-.15.18,0,0.27s0.07,0.11.16,0.16a3.162,3.162,0,0,0,.58.14c0.29,0.06.58,0.11,0.58,0.11l0.2-.14h0.34l0.09-.31,0.27-.01,0.02-.29a0.381,0.381,0,0,1,.05-0.29,1.151,1.151,0,0,0,.3-0.15c0.13-.08.24-0.16,0.24-0.16s0.07,0.01.16,0.03a0.761,0.761,0,0,0,.38-0.01,2.638,2.638,0,0,0,.29-0.36,0.743,0.743,0,0,1,.01-0.33,0.063,0.063,0,0,1,.06-0.05,1.07,1.07,0,0,1,.59.13,0.915,0.915,0,0,0,.49.23,1.223,1.223,0,0,0,.35-0.19l0.04-.03c0.04-.03.15-0.1,0.27-0.19v0.01a0.558,0.558,0,0,1,.33.17,0.854,0.854,0,0,1,.07.5,0.709,0.709,0,0,0,.32.38c0.09,0.1.52,0.68,0.66,0.86s0.44,0.5.44,0.5l0.14,0.34-0.3.22a3.626,3.626,0,0,1-.44-0.05,0.189,0.189,0,0,0-.19.07,1.354,1.354,0,0,1-.24-0.18c-0.16-.14-0.05.02-0.25,0.13s0.25,0.27.36,0.36a2.5,2.5,0,0,1,.32.34c0.08,0.09.26-.03,0.26-0.18a2.012,2.012,0,0,1,.02-0.27h0.32l0.2-.23,0.16-.14,0.07-.2-0.12-.36a1.509,1.509,0,0,1,.3-0.08,0.477,0.477,0,0,1,.18.27l0.09,0.04a0.9,0.9,0,0,0-.05-0.31,2.4,2.4,0,0,0-.34-0.3,2.854,2.854,0,0,1-.42-0.2,3.981,3.981,0,0,1-.41-0.64,0.464,0.464,0,0,1-.06-0.31,2.182,2.182,0,0,0-.27-0.32,0.615,0.615,0,0,1-.05-0.31s0.16-.1.34-0.21a0.225,0.225,0,0,0,.1-0.08,0.909,0.909,0,0,1,.26.42,1.414,1.414,0,0,0,.11.45,0.781,0.781,0,0,0,.54.25c0.29,0.05.19,0.25,0.19,0.25a1.631,1.631,0,0,1,.31.54c0.03,0.22.03,0.32,0.05,0.59a1.948,1.948,0,0,0,.23.56,4.182,4.182,0,0,1,.18.45,2.759,2.759,0,0,0,.08.27c-0.18.66-.37,1.33-0.57,2a1.921,1.921,0,0,0-.29.72,0.28,0.28,0,0,1-.13.05h0l-0.37-.09h0a4.933,4.933,0,0,0-.86-0.43,6.049,6.049,0,0,1-.42-0.66,0.266,0.266,0,0,0-.31-0.08,1.745,1.745,0,0,1-.63-0.23c-0.06-.07-0.15-0.18-0.23-0.26-0.06-.08-0.11-0.14-0.11-0.14s0.05-.05.11-0.1a0.8,0.8,0,0,1,.25-0.16c0.13-.03-0.05-0.29-0.21-0.55s0.42-.35.4-0.48a0.786,0.786,0,0,0-.44-0.2l-0.01-.01a1.083,1.083,0,0,0-.52,0l-0.5-.1s-0.16.05-.29,0.1a0.21,0.21,0,0,1-.17-0.02,0.584,0.584,0,0,1-.3-0.3,0.366,0.366,0,0,0-.37-0.12,0.556,0.556,0,0,1-.21-0.06,0.381,0.381,0,0,0-.19-0.06c-0.11.01-.22,0.07-0.36,0.09-0.17.02-.4,0.08-0.55,0.1-0.03,0-.06.01-0.08,0.01a1.1,1.1,0,0,0-.47.21c-0.18.1-.24-0.29-0.24-0.29a0.863,0.863,0,0,1-.15-0.02,2.741,2.741,0,0,1-.48-0.14c-0.39-.16-0.21-0.4-0.21-0.4l-0.22.19a1.294,1.294,0,0,1-.17.15,0.672,0.672,0,0,1-.58.32,0.807,0.807,0,0,0-.52.16,2.8,2.8,0,0,0-.51.72,62.66,62.66,0,0,1-9.01-3.82c-0.12-.07-0.32-0.18-0.56-0.31h0c-0.42-.24-0.97-0.56-1.55-0.94a19.207,19.207,0,0,1,2-5.58,0.488,0.488,0,0,1-.03.07c-3.44.05-5.66,0.7-6,1.96-0.78,2.92,8.89,8.06,21.6,11.48Q1640.15,3197.775,1642.22,3198.24Zm-3.86-5.38a0.284,0.284,0,0,0-.09.23,0.347,0.347,0,0,0,.16.1,0.564,0.564,0,0,0,.22-0.01,1.546,1.546,0,0,1,.15-0.04c0.17-.05.07-0.14,0.11-0.26a1.448,1.448,0,0,1,.1-0.41c0.07-.12-0.14-0.21-0.14-0.21s-0.16.23-.22,0.32l-0.01.01A0.8,0.8,0,0,1,1638.36,3192.86Zm0.29-.95a0.462,0.462,0,0,0,.34-0.18c0.05-.14.04-0.07,0.09-0.23s-0.14.05-.14,0.05l-0.23.14-0.06.14-0.04.09A0.158,0.158,0,0,0,1638.65,3191.91Z" transform="translate(-1612.66 -3166.31)"/>
</svg>
