<svg xmlns="http://www.w3.org/2000/svg" width="55" height="54.768" viewBox="0 0 47.822 47.62">
  <defs>
    <style>
      .cls-1 {
        fill: #262626;
        fill-rule: evenodd;
      }
    </style>
  </defs>
  <path id="icon" class="cls-1" d="M1642.28,3065.73a11.659,11.659,0,0,0,.88-3.92,12.133,12.133,0,0,0-.51-4.32,12.35,12.35,0,0,0-2.05-4,10.658,10.658,0,0,0-3.3-2.87,7.052,7.052,0,0,0-3.36-.92,3.468,3.468,0,0,0-1.03.17c-0.23.07-.35,0.11-0.35,0.11s0.03,0.12.08,0.35c0.05,0.21.05,0.58,0.09,0.92a21.817,21.817,0,0,1-.14,2.65,16.842,16.842,0,0,0,.59,6.46,14.92,14.92,0,0,0,1.42,3.26,16.377,16.377,0,0,0,2.02,2.81c0.65,0.72,2.13,2.41,2.66,2.83a23.29,23.29,0,0,0,.28-2.92,20.615,20.615,0,0,0,0-2.08c-0.01-.68-0.14-1.35-0.2-2-0.11-.64-0.27-1.25-0.4-1.84-0.2-.56-0.4-1.09-0.57-1.59q-0.375-.69-0.69-1.26a4.887,4.887,0,0,0-.64-0.89c-0.38-.49-0.61-0.76-0.61-0.76s0.25,0.25.66,0.71a5.087,5.087,0,0,1,.72.86c0.24,0.37.5,0.78,0.79,1.23,0.22,0.49.45,1.02,0.71,1.58,0.17,0.59.38,1.21,0.55,1.86,0.11,0.66.28,1.34,0.35,2.04s0.16,1.42.16,2.14c0.03,0.81.01,1.62-.02,2.41,0.06-.07.14-0.12,0.2-0.2A10.569,10.569,0,0,0,1642.28,3065.73Zm-6.38,5.95,0.29,0.52a15.135,15.135,0,0,0-11.48,10.01l0.36,0.04a15.272,15.272,0,0,1,2.28.32,1.851,1.851,0,0,1,.36-0.96,4.346,4.346,0,0,1,3.6-1.73,24.178,24.178,0,0,1,7.05.8,5.7,5.7,0,0,0,3.89-.22c3.8-1.52,7.13-1.38,9.83.38,0.33,0.22.68,0.45,1.03,0.69a15.144,15.144,0,0,0-11.62-9.41c0.14-.25.28-0.51,0.44-0.77a2.856,2.856,0,0,0,.41-1.03,1.368,1.368,0,0,1-.02-0.28c-0.54.68-1.03,1.37-1.46,2.02-0.26-.03-0.53-0.04-0.8-0.06,0.14-1.02.26-2.11,0.31-3.25a3.189,3.189,0,0,1-.26.26,3.871,3.871,0,0,0-.49,1.39c-0.1.53-.2,1.04-0.31,1.54-0.09,0-.18-0.02-0.27-0.02a15.484,15.484,0,0,0-2.28.17c-0.38-.56-0.79-1.14-1.25-1.72a2.452,2.452,0,0,1-.02.27A2.827,2.827,0,0,0,1635.9,3071.68Zm8.76-4.16c0.39-.37.83-0.67,1.22-0.99,0.42-.29.85-0.54,1.24-0.79,0.43-.19.82-0.37,1.19-0.54,0.39-.12.75-0.22,1.07-0.31a3.589,3.589,0,0,1,.83-0.14c0.47-.05.73-0.08,0.73-0.08s-0.26.05-.72,0.13a3.661,3.661,0,0,0-.81.2c-0.31.11-.65,0.24-1.02,0.37-0.34.19-.72,0.4-1.12,0.62-0.37.27-.76,0.54-1.14,0.85-0.36.34-.76,0.66-1.11,1.05a14.85,14.85,0,0,0-1.04,1.18,18.632,18.632,0,0,0-1.3,1.8c0.52,0.02,2.2-.2,2.94-0.29a12.17,12.17,0,0,0,2.55-.59,11.763,11.763,0,0,0,2.43-1.15,12.566,12.566,0,0,0,3.55-3.39,15.685,15.685,0,0,1,1.24-1.57c0.19-.18.38-0.39,0.51-0.49s0.22-.15.22-0.15l-0.14-.25a2.7,2.7,0,0,0-.51-0.6,5.3,5.3,0,0,0-2.37-1.15,8.017,8.017,0,0,0-3.31-.01,9.152,9.152,0,0,0-3.16,1.26,9.283,9.283,0,0,0-2.45,2.21,9.4,9.4,0,0,0-1.45,2.66,8.08,8.08,0,0,0-.42,2.47c0,0.07.01,0.14,0.01,0.21,0.38-.47.77-0.93,1.19-1.39C1643.86,3068.25,1644.28,3067.89,1644.66,3067.52Zm-22.23-3.31a14.363,14.363,0,0,1,1.24,1.57,12.888,12.888,0,0,0,3.56,3.39,11.524,11.524,0,0,0,2.43,1.15,12.17,12.17,0,0,0,2.55.59c0.74,0.09,2.42.31,2.93,0.29a17.183,17.183,0,0,0-1.3-1.81c-0.31-.42-0.69-0.79-1.03-1.18s-0.75-.7-1.11-1.04c-0.39-.31-0.78-0.58-1.15-0.85-0.39-.22-0.77-0.43-1.11-0.62-0.38-.14-0.72-0.26-1.02-0.38a4.6,4.6,0,0,0-.81-0.19c-0.46-.08-0.73-0.13-0.73-0.13l0.73,0.08a4.109,4.109,0,0,1,.84.13c0.32,0.09.67,0.2,1.06,0.31,0.37,0.17.77,0.36,1.2,0.55,0.39,0.25.81,0.5,1.23,0.79,0.39,0.32.83,0.62,1.22,0.99s0.8,0.72,1.16,1.13c0.42,0.45.81,0.92,1.19,1.39,0-.07.01-0.14,0.01-0.22a7.817,7.817,0,0,0-.43-2.46,8.81,8.81,0,0,0-1.45-2.66,9.422,9.422,0,0,0-5.61-3.47,7.974,7.974,0,0,0-3.3,0,5.454,5.454,0,0,0-2.38,1.16,2.374,2.374,0,0,0-.5.6c-0.09.16-.14,0.24-0.14,0.24s0.07,0.06.21,0.16A5.524,5.524,0,0,1,1622.43,3064.21Zm36.94,25.09a31.832,31.832,0,0,0-8.57-7.59c-2.6-1.69-5.56-1.33-8.31-.22a7.421,7.421,0,0,1-4.99.26,22.725,22.725,0,0,0-6.55-.73,2.724,2.724,0,0,0-2.3,1.07c-0.32.42,2.26,2.15,4.48,2.15-0.41.82-7.57-.92-8.52-0.85l-5.42-.69c-1.92-.16-1.92-0.88-3.81.18a0.469,0.469,0,0,1-.24.04,2.4,2.4,0,0,0-2.23.97,1.285,1.285,0,0,0-.13,1.36,1.26,1.26,0,0,0,1.07.52,36.888,36.888,0,0,0,6.48,2.24c2.34,0.58,4.61,1.28,6.95,1.81a10.19,10.19,0,0,1,2.81.87,10.664,10.664,0,0,0,5.92,1.26c2.39-.11,4.79-0.01,7.19-0.03a10.243,10.243,0,0,1,9.58,5.38l13.55-.03C1663.38,3093.81,1662.07,3092.97,1659.37,3089.3Z" transform="translate(-1615.589 -3049.69)"/>
</svg>
